<svg xmlns="http://www.w3.org/2000/svg" viewBox="0 0 1280 582" width="1280" height="582" role="img" aria-label="分阶段路线图：阶段 0 到阶段 7">
<title>分阶段路线图：阶段 0 到阶段 7</title>
<defs><marker id="ahe34948" viewBox="0 0 10 10" refX="8" refY="5" markerWidth="9" markerHeight="9" markerUnits="userSpaceOnUse" orient="auto-start-reverse"><path d="M0,0.6 L10,5 L0,9.4 z" fill="#e34948"/></marker></defs>
<style>text{font-family:'PingFang SC','Microsoft YaHei','Noto Sans CJK SC','WenQuanYi Zen Hei',sans-serif;fill:#0b0b0b} .s{fill:#52514e} .m{fill:#8a8984}</style>
<rect width="1280" height="582" rx="12" fill="#fcfcfb"/>
<text x="40.0" y="42.0" font-size="22" font-weight="700">分阶段路线图：约 12 个月（3–4 人团队）</text>
<text x="40.0" y="68.0" font-size="14" class="s">每个阶段都有准入门槛；阶段 7 是持续的研究线，并入主干前必须在 SMART 基准上胜出。</text>
<rect x="61.0" y="305.0" width="113.4" height="14.0" rx="3" fill="#2a78d6"/>
<rect x="176.4" y="305.0" width="151.8" height="14.0" rx="3" fill="#eb6834"/>
<rect x="330.2" y="305.0" width="151.8" height="14.0" rx="3" fill="#1baf7a"/>
<rect x="484.1" y="305.0" width="190.3" height="14.0" rx="3" fill="#eda100"/>
<rect x="676.4" y="305.0" width="113.4" height="14.0" rx="3" fill="#e87ba4"/>
<rect x="791.8" y="305.0" width="151.8" height="14.0" rx="3" fill="#008300"/>
<rect x="945.6" y="305.0" width="113.4" height="14.0" rx="3" fill="#4a3aa7"/>
<rect x="1061.0" y="305.0" width="178.0" height="14.0" rx="3" fill="#f5bfbf"/>
<path d="M1061.0,312 H1250" fill="none" stroke="#e34948" stroke-width="2" stroke-linecap="round" stroke-linejoin="round" stroke-dasharray="6 4" marker-end="url(#ahe34948)"/>
<path d="M60.0,321 V327" fill="none" stroke="#8a8984" stroke-width="1.2" stroke-linecap="round" stroke-linejoin="round"/>
<text x="60.0" y="341.0" font-size="11.5" text-anchor="middle" class="m">0</text>
<path d="M175.4,321 V327" fill="none" stroke="#8a8984" stroke-width="1.2" stroke-linecap="round" stroke-linejoin="round"/>
<text x="175.4" y="341.0" font-size="11.5" text-anchor="middle" class="m">6</text>
<path d="M329.2,321 V327" fill="none" stroke="#8a8984" stroke-width="1.2" stroke-linecap="round" stroke-linejoin="round"/>
<text x="329.2" y="341.0" font-size="11.5" text-anchor="middle" class="m">14</text>
<path d="M483.1,321 V327" fill="none" stroke="#8a8984" stroke-width="1.2" stroke-linecap="round" stroke-linejoin="round"/>
<text x="483.1" y="341.0" font-size="11.5" text-anchor="middle" class="m">22</text>
<path d="M675.4,321 V327" fill="none" stroke="#8a8984" stroke-width="1.2" stroke-linecap="round" stroke-linejoin="round"/>
<text x="675.4" y="341.0" font-size="11.5" text-anchor="middle" class="m">32</text>
<path d="M790.8,321 V327" fill="none" stroke="#8a8984" stroke-width="1.2" stroke-linecap="round" stroke-linejoin="round"/>
<text x="790.8" y="341.0" font-size="11.5" text-anchor="middle" class="m">38</text>
<path d="M944.6,321 V327" fill="none" stroke="#8a8984" stroke-width="1.2" stroke-linecap="round" stroke-linejoin="round"/>
<text x="944.6" y="341.0" font-size="11.5" text-anchor="middle" class="m">46</text>
<path d="M1060.0,321 V327" fill="none" stroke="#8a8984" stroke-width="1.2" stroke-linecap="round" stroke-linejoin="round"/>
<text x="1060.0" y="341.0" font-size="11.5" text-anchor="middle" class="m">52</text>
<text x="50.0" y="341.0" font-size="11.5" text-anchor="end" class="m">周</text>
<path d="M117.7,276 V304" fill="none" stroke="#2a78d6" stroke-width="1.6" stroke-linecap="round" stroke-linejoin="round"/>
<rect x="24.0" y="96.0" width="248.0" height="180.0" rx="10" fill="#fff" stroke="#7faee6" stroke-width="1.4"/>
<rect x="24.0" y="96.0" width="248.0" height="6.0" rx="3" fill="#2a78d6"/>
<text x="36.0" y="124.0" font-size="12.5" font-weight="700">阶段 0</text>
<text x="260.0" y="124.0" font-size="12" text-anchor="end" class="s">第 1–6 周</text>
<text x="36.0" y="147.0" font-size="14.5" font-weight="700">身体与观测底座</text>
<text x="36.0" y="168.0" font-size="11.5" class="s">虚拟书桌模拟器</text>
<text x="36.0" y="184.0" font-size="11.5" class="s">事件 schema（因果父 ID）</text>
<text x="36.0" y="200.0" font-size="11.5" class="s">ZeroMQ + Parquet/DuckDB + Rerun</text>
<text x="36.0" y="216.0" font-size="11.5" class="s">参数与许可证台账接 CI · 先天清单 v0</text>
<rect x="36.0" y="239.0" width="34.0" height="18.0" rx="9" fill="#d4e4f7"/>
<text x="53.0" y="252.0" font-size="11" text-anchor="middle" font-weight="700">门槛</text>
<text x="76.0" y="252.0" font-size="11.5">婴儿监视器能回放</text>
<text x="76.0" y="268.0" font-size="11.5">任一输出能回溯到输入</text>
<path d="M252.3,320 V352" fill="none" stroke="#eb6834" stroke-width="1.6" stroke-linecap="round" stroke-linejoin="round"/>
<rect x="128.3" y="352.0" width="248.0" height="180.0" rx="10" fill="#fff" stroke="#f3a485" stroke-width="1.4"/>
<rect x="128.3" y="352.0" width="248.0" height="6.0" rx="3" fill="#eb6834"/>
<text x="140.3" y="380.0" font-size="12.5" font-weight="700">阶段 1</text>
<text x="364.3" y="380.0" font-size="12" text-anchor="end" class="s">第 6–14 周</text>
<text x="140.3" y="403.0" font-size="14.5" font-weight="700">S4 端到端：感知 + 输出 + 闭环</text>
<text x="140.3" y="424.0" font-size="11.5" class="s">VAD · KWS · Zipformer · DINOv2</text>
<text x="140.3" y="440.0" font-size="11.5" class="s">EdgeSAM · PP-OCRv5</text>
<text x="140.3" y="456.0" font-size="11.5" class="s">Matcha + Vocos · 书写完成检测</text>
<text x="140.3" y="472.0" font-size="11.5" class="s">读回与自听</text>
<rect x="140.3" y="495.0" width="34.0" height="18.0" rx="9" fill="#fbe1d6"/>
<text x="157.3" y="508.0" font-size="11" text-anchor="middle" font-weight="700">门槛</text>
<text x="180.3" y="508.0" font-size="11.5">白板题正确率 ≥95%</text>
<text x="180.3" y="524.0" font-size="11.5">作答 p50 ≤0.7s · 因果追踪可用</text>
<path d="M406.2,276 V304" fill="none" stroke="#1baf7a" stroke-width="1.6" stroke-linecap="round" stroke-linejoin="round"/>
<rect x="282.2" y="96.0" width="248.0" height="180.0" rx="10" fill="#fff" stroke="#76cfaf" stroke-width="1.4"/>
<rect x="282.2" y="96.0" width="248.0" height="6.0" rx="3" fill="#1baf7a"/>
<text x="294.2" y="124.0" font-size="12.5" font-weight="700">阶段 2</text>
<text x="518.2" y="124.0" font-size="12" text-anchor="end" class="s">第 14–22 周</text>
<text x="294.2" y="147.0" font-size="14.5" font-weight="700">S1 与熟练化</text>
<text x="294.2" y="168.0" font-size="11.5" class="s">示范学习（HMM → iDeLog → ProMP）</text>
<text x="294.2" y="184.0" font-size="11.5" class="s">身体图式 · Soar/CLIPS chunking</text>
<text x="294.2" y="200.0" font-size="11.5" class="s">L0–L3 晋级 · CART 路由</text>
<rect x="294.2" y="223.0" width="34.0" height="18.0" rx="9" fill="#d1efe4"/>
<text x="311.2" y="236.0" font-size="11" text-anchor="middle" font-weight="700">门槛</text>
<text x="334.2" y="236.0" font-size="11.5">500 字×20 次后 L2 覆盖 ≥90%</text>
<text x="334.2" y="252.0" font-size="11.5">快路精确率 ≥98%</text>
<text x="334.2" y="268.0" font-size="11.5">决策 p50 &lt;10ms</text>
<path d="M579.2,320 V352" fill="none" stroke="#eda100" stroke-width="1.6" stroke-linecap="round" stroke-linejoin="round"/>
<rect x="455.2" y="352.0" width="248.0" height="180.0" rx="10" fill="#fff" stroke="#f4c766" stroke-width="1.4"/>
<rect x="455.2" y="352.0" width="248.0" height="6.0" rx="3" fill="#eda100"/>
<text x="467.2" y="380.0" font-size="12.5" font-weight="700">阶段 3</text>
<text x="691.2" y="380.0" font-size="12" text-anchor="end" class="s">第 22–32 周</text>
<text x="467.2" y="403.0" font-size="14.5" font-weight="700">S2 少样本概念</text>
<text x="467.2" y="424.0" font-size="11.5" class="s">物体提议 · 指向消歧 · 新词发现</text>
<text x="467.2" y="440.0" font-size="11.5" class="s">共同注意贝叶斯 · 落地束 · 线稿绘画</text>
<text x="467.2" y="456.0" font-size="11.5" class="s">社会反馈</text>
<rect x="467.2" y="479.0" width="34.0" height="18.0" rx="9" fill="#fbeccc"/>
<text x="484.2" y="492.0" font-size="11" text-anchor="middle" font-weight="700">门槛</text>
<text x="507.2" y="492.0" font-size="11.5">两次命名后绑定 ≥85%</text>
<text x="507.2" y="508.0" font-size="11.5">画作 5 选 1 辨认 ≥70%</text>
<path d="M733.1,276 V304" fill="none" stroke="#e87ba4" stroke-width="1.6" stroke-linecap="round" stroke-linejoin="round"/>
<rect x="609.1" y="96.0" width="248.0" height="180.0" rx="10" fill="#fff" stroke="#f1b0c8" stroke-width="1.4"/>
<rect x="609.1" y="96.0" width="248.0" height="6.0" rx="3" fill="#e87ba4"/>
<text x="621.1" y="124.0" font-size="12.5" font-weight="700">阶段 4</text>
<text x="845.1" y="124.0" font-size="12" text-anchor="end" class="s">第 32–38 周</text>
<text x="621.1" y="147.0" font-size="14.5" font-weight="700">S3 世界模型</text>
<text x="621.1" y="168.0" font-size="11.5" class="s">MOG2/Hough 测量 · IMM · 解析积分</text>
<text x="621.1" y="184.0" font-size="11.5" class="s">修正版 pymunk · 惊奇 · 屏幕物理沙盒</text>
<text x="621.1" y="200.0" font-size="11.5" class="s">QPT 叙述</text>
<rect x="621.1" y="223.0" width="34.0" height="18.0" rx="9" fill="#fae5ed"/>
<text x="638.1" y="236.0" font-size="11" text-anchor="middle" font-weight="700">门槛</text>
<text x="661.1" y="236.0" font-size="11.5">+1s 位置误差中位数 ≤1 个球径</text>
<text x="661.1" y="252.0" font-size="11.5">90% 预测带覆盖 85–95%</text>
<path d="M867.7,320 V352" fill="none" stroke="#008300" stroke-width="1.6" stroke-linecap="round" stroke-linejoin="round"/>
<rect x="743.7" y="352.0" width="248.0" height="180.0" rx="10" fill="#fff" stroke="#66b566" stroke-width="1.4"/>
<rect x="743.7" y="352.0" width="248.0" height="6.0" rx="3" fill="#008300"/>
<text x="755.7" y="380.0" font-size="12.5" font-weight="700">阶段 5</text>
<text x="979.7" y="380.0" font-size="12" text-anchor="end" class="s">第 38–46 周</text>
<text x="755.7" y="403.0" font-size="14.5" font-weight="700">睡眠 v1 与慢通道</text>
<text x="755.7" y="424.0" font-size="11.5" class="s">分层存储 · 交错重放 · 编译蒸馏 · Stitch</text>
<text x="755.7" y="440.0" font-size="11.5" class="s">金丝雀回滚 · CI 损伤测试 · Qwen 解析</text>
<text x="755.7" y="456.0" font-size="11.5" class="s">ACI 共形</text>
<rect x="755.7" y="479.0" width="34.0" height="18.0" rx="9" fill="#cce6cc"/>
<text x="772.7" y="492.0" font-size="11" text-anchor="middle" font-weight="700">门槛</text>
<text x="795.7" y="492.0" font-size="11.5">30 天生活流 BWT ≥ −2%</text>
<text x="795.7" y="508.0" font-size="11.5">熟悉领域 LM 调用 &lt;5%</text>
<path d="M1002.3,276 V304" fill="none" stroke="#4a3aa7" stroke-width="1.6" stroke-linecap="round" stroke-linejoin="round"/>
<rect x="878.3" y="96.0" width="248.0" height="180.0" rx="10" fill="#fff" stroke="#9289ca" stroke-width="1.4"/>
<rect x="878.3" y="96.0" width="248.0" height="6.0" rx="3" fill="#4a3aa7"/>
<text x="890.3" y="124.0" font-size="12.5" font-weight="700">阶段 6</text>
<text x="1114.3" y="124.0" font-size="12" text-anchor="end" class="s">第 46–52 周</text>
<text x="890.3" y="147.0" font-size="14.5" font-weight="700">真机与边缘设备</text>
<text x="890.3" y="168.0" font-size="11.5" class="s">Orin NX TensorRT INT8 · 纯 CPU 模式</text>
<text x="890.3" y="184.0" font-size="11.5" class="s">真人教学 sim-to-real（按天 / 周计）</text>
<text x="890.3" y="200.0" font-size="11.5" class="s">3–4 人团队总计约 12 个月</text>
<rect x="890.3" y="223.0" width="34.0" height="18.0" rx="9" fill="#dbd8ed"/>
<text x="907.3" y="236.0" font-size="11" text-anchor="middle" font-weight="700">交付</text>
<text x="930.3" y="236.0" font-size="11.5">SMART 基准（30 天生活流 +</text>
<text x="930.3" y="252.0" font-size="11.5">S1–S4） · 开源代码 · 观测台</text>
<text x="930.3" y="268.0" font-size="11.5">数据生成器</text>
<path d="M1130.0,320 V352" fill="none" stroke="#e34948" stroke-width="1.6" stroke-linecap="round" stroke-linejoin="round"/>
<rect x="1006.0" y="352.0" width="248.0" height="180.0" rx="10" fill="#fff" stroke="#ee9291" stroke-width="1.4"/>
<rect x="1006.0" y="352.0" width="248.0" height="6.0" rx="3" fill="#e34948"/>
<text x="1018.0" y="380.0" font-size="12.5" font-weight="700">阶段 7</text>
<text x="1242.0" y="380.0" font-size="12" text-anchor="end" class="s">持续</text>
<text x="1018.0" y="403.0" font-size="14.5" font-weight="700">研究线</text>
<text x="1018.0" y="424.0" font-size="11.5" class="s">发音合成与咿呀学语 · 表征条件图像生成</text>
<text x="1018.0" y="440.0" font-size="11.5" class="s">JEPA 式世界模型残差 · 任务图式归纳</text>
<rect x="1018.0" y="463.0" width="34.0" height="18.0" rx="9" fill="#f9dbda"/>
<text x="1035.0" y="476.0" font-size="11" text-anchor="middle" font-weight="700">门槛</text>
<text x="1058.0" y="476.0" font-size="11.5">SMART 基准上显著胜过现有组件</text>
<text x="1058.0" y="492.0" font-size="11.5">不破 1B 与延迟预算</text>
<text x="1064.0" y="298.0" font-size="12" font-weight="700">≈ 12 个月</text>
</svg>
